<?xml version="1.0" standalone="no"?>
<!DOCTYPE svg PUBLIC "-//W3C//DTD SVG 20010904//EN"
 "http://www.w3.org/TR/2001/REC-SVG-20010904/DTD/svg10.dtd">
<svg version="1.0" xmlns="http://www.w3.org/2000/svg"
 width="1024.000000pt" height="1024.000000pt" viewBox="0 0 1024.000000 1024.000000"
 preserveAspectRatio="xMidYMid meet">

<g transform="translate(0.000000,1024.000000) scale(0.100000,-0.100000)"
fill="#E63946" stroke="none">
<path d="M3768 7928 c-216 -15 -427 -75 -637 -183 -162 -83 -269 -163 -421
-315 -250 -251 -403 -517 -490 -855 -51 -200 -69 -347 -65 -560 6 -358 76
-640 240 -972 137 -275 300 -496 572 -776 184 -189 340 -326 693 -608 160
-128 385 -290 388 -280 11 33 104 213 134 261 44 69 114 159 141 183 11 10 18
19 16 21 -2 1 -35 20 -74 41 -122 67 -375 225 -510 319 -322 224 -629 523
-803 784 -147 218 -247 438 -287 632 -33 159 -42 251 -39 408 4 187 13 256 49
394 102 393 408 767 754 919 276 122 599 123 858 2 202 -94 403 -294 512 -511
75 -148 105 -260 125 -463 16 -166 36 -225 94 -282 81 -79 191 -101 290 -58
110 49 157 139 178 339 19 181 29 227 75 352 174 464 605 758 1042 710 297
-33 535 -196 666 -457 116 -231 103 -541 -33 -810 -161 -319 -458 -632 -1077
-1132 -113 -91 -291 -233 -395 -316 -349 -276 -538 -439 -735 -635 -296 -295
-473 -529 -615 -814 -41 -82 -74 -156 -74 -164 0 -8 42 -58 93 -111 101 -106
179 -205 229 -293 18 -32 36 -58 39 -58 4 0 17 26 30 57 73 186 192 390 345
593 244 324 444 508 1139 1049 509 395 653 514 865 709 93 86 305 305 375 387
l25 30 -16 -40 c-72 -177 -250 -468 -390 -635 -178 -213 -452 -467 -909 -840
-561 -458 -887 -826 -1089 -1227 -157 -313 -172 -475 -52 -601 51 -55 101 -76
176 -76 128 1 201 61 265 217 105 257 242 445 550 753 218 219 379 361 755
668 179 147 338 282 465 395 119 107 378 375 459 476 329 411 509 845 557
1345 12 133 7 265 -16 437 -54 386 -219 743 -477 1029 -211 234 -435 384 -720
483 -396 136 -812 109 -1205 -79 -199 -95 -402 -260 -555 -452 -39 -48 -73
-88 -77 -88 -3 0 -24 26 -46 57 -59 84 -249 269 -344 337 -325 231 -664 330
-1043 304z"/>
<path d="M3116 6477 c-72 -160 -96 -284 -97 -484 -1 -310 105 -575 359 -902
216 -277 619 -597 1028 -816 49 -26 114 -62 144 -79 l55 -32 75 81 c87 92 205
201 285 259 l55 41 -208 101 c-481 234 -842 477 -1142 770 -205 201 -330 377
-429 608 -57 134 -80 224 -94 370 l-12 125 -19 -42z"/>
</g>
</svg>
